
        <svg xmlns="http://www.w3.org/2000/svg" xmlns:xlink="http://www.w3.org/1999/xlink" version="1.1" width="3162.2002820874472" height="750.4261349231647" viewBox="0 0 3162.2002820874472 750.4261349231647">
			
			<g transform="scale(8.110014104372354) translate(10, 10)">
				<defs id="SvgjsDefs3401"/><g id="SvgjsG3402" featureKey="5TMTKC-0" transform="matrix(0.8454071880486692,0,0,0.8454071880486692,-4.226709411778876,-6.003826067278661)" fill="#fff"><path xmlns="http://www.w3.org/2000/svg" d="M93.093,42.722c-1.304-0.352-2.645-0.577-3.923-0.991c-1.605-0.514-2.095-2.005-1.204-3.435  c0.326-0.514,0.752-0.978,1.141-1.454c0.615-0.74,1.291-1.43,1.869-2.207c0.813-1.104,0.789-1.58-0.302-2.445  c-0.814-0.626-1.729-1.19-2.684-1.554c-4.639-1.706-9.377-1.63-13.991-0.126c-2.908,0.966-5.629,2.495-8.399,3.849  c-0.866,0.414-1.668,0.89-2.583,0.288c-0.979-0.664-0.878-1.63-0.627-2.607c0.2-0.828,0.4-1.655,0.564-2.483  c1.078-5.241,0.864-10.381-1.204-15.358c-1.027-2.495-2.345-4.802-4.602-6.407c-1.454-1.04-2.044-0.94-3.021,0.54  c-0.764,1.166-1.403,2.407-2.206,3.535c-1.091,1.517-2.746,1.493-3.836-0.037c-0.652-0.903-1.204-1.894-1.769-2.847  c-1.366-2.294-2.106-2.419-4.124-0.676c-0.202,0.174-0.39,0.376-0.578,0.564c-3.009,3.259-4.363,7.246-4.964,11.522  c-0.59,4.087-0.063,8.086,0.991,12.048c0.225,0.864,0.112,1.63-0.64,2.169c-0.753,0.526-1.531,0.4-2.283-0.088  c-0.476-0.326-0.966-0.627-1.467-0.928c-4.387-2.533-9.038-4.176-14.18-4.15c-0.852,0.038-1.704,0.025-2.545,0.125  c-2.394,0.276-4.727,0.814-6.732,2.256c-1.53,1.104-1.63,1.781-0.452,3.223c0.689,0.84,1.455,1.618,2.144,2.445  c1.781,2.156,1.267,3.799-1.428,4.513c-1.155,0.302-2.345,0.478-3.486,0.815c-1.566,0.464-1.88,1.04-1.304,2.595  c0.388,1.04,0.865,2.094,1.505,2.971c3.397,4.639,8.1,7.334,13.578,8.676c2.207,0.539,4.514,0.627,6.746,1.065  c0.664,0.126,1.454,0.602,1.804,1.153c0.452,0.74,0.063,1.567-0.639,2.132c-0.489,0.39-0.953,0.79-1.417,1.203  c-4.287,3.812-7.472,8.325-8.839,13.979c-0.664,2.733-1.016,5.492,0.062,8.212c0.553,1.367,1.041,1.605,2.42,1.104  c1.19-0.438,2.345-0.99,3.523-1.466c2.307-0.928,3.749,0.074,3.649,2.558c-0.05,1.241-0.239,2.469-0.288,3.698  c-0.063,1.756,0.376,2.156,2.156,2.193c1.993,0.038,3.811-0.589,5.554-1.441c5.34-2.607,8.965-6.846,11.497-12.136  c0.576-1.216,1.116-2.458,1.793-3.623c0.854-1.443,2.557-1.342,3.309,0.149c0.378,0.715,0.628,1.492,0.966,2.231  c2.407,5.291,5.843,9.717,10.958,12.663c2.132,1.229,4.363,2.183,6.883,2.156c1.793-0.025,2.232-0.438,2.145-2.193  c-0.063-1.229-0.238-2.457-0.275-3.698c-0.088-2.483,1.329-3.485,3.636-2.558c1.152,0.45,2.269,1.002,3.422,1.441  c1.468,0.538,2.02,0.276,2.596-1.179c0.753-1.931,0.715-3.949,0.426-5.955c-0.765-5.378-3.233-9.942-6.933-13.867  c-1.191-1.254-2.608-2.294-3.786-3.573c-0.438-0.488-0.766-1.441-0.603-2.031c0.15-0.525,0.979-0.989,1.605-1.216  c0.714-0.237,1.529-0.188,2.294-0.25c5.993-0.527,11.372-2.533,15.822-6.657c1.655-1.542,3.098-3.248,3.85-5.442  C95.338,43.8,95.05,43.236,93.093,42.722z M48.335,29.407c0.164-1.204,0.238-2.859,1.805-2.896c1.618-0.038,1.693,1.63,1.857,2.833  c0.588,4.225,0.112,8.387-0.979,12.486c-0.112,0.464-0.4,0.891-0.602,1.33c-0.138,0.012-0.288,0.012-0.426,0.025  c-0.251-0.527-0.602-1.016-0.728-1.567C48.285,37.606,47.771,33.532,48.335,29.407z M27.51,46.621  c-1.09-0.364-2.482-1.091-1.992-2.557c0.45-1.355,1.88-1.066,3.021-0.866c4.301,0.752,8.2,2.495,11.86,4.865  c0.414,0.264,0.866,0.476,1.292,0.714c-0.164,0.29-0.326,0.59-0.477,0.891c-1.516-0.113-3.071-0.025-4.513-0.376  C33.604,48.539,30.532,47.624,27.51,46.621z M44.248,61.24c-1.53,3.849-3.547,7.41-6.394,10.443  c-0.852,0.915-1.919,2.281-3.273,1.279c-1.229-0.928-0.338-2.345,0.238-3.411c2.019-3.698,4.827-6.745,8.049-9.415  c0.388-0.326,0.916-0.502,1.367-0.753c0.125,0.102,0.238,0.201,0.35,0.302C44.486,60.211,44.436,60.751,44.248,61.24z   M51.218,55.435c0,1.868,0,3.736-0.012,5.604c0,1.054-0.464,1.605-1.254,1.593c-0.802,0-1.229-0.552-1.241-1.605v-5.579  c-0.676-0.238-1.266-0.677-1.692-1.229c-0.991,0.313-1.956,0.626-2.909,0.928c-0.853,0.276-1.705,0.576-2.557,0.828  c-0.928,0.262-1.618-0.026-1.806-0.778c-0.213-0.852,0.276-1.329,1.028-1.579c1.83-0.59,3.661-1.191,5.492-1.793  c0.012-0.727,0.25-1.392,0.638-1.956c-0.726-1.016-1.441-1.993-2.156-2.971c-0.427-0.602-0.865-1.204-1.292-1.805  c-0.452-0.64-0.464-1.266,0.175-1.793c0.553-0.464,1.329-0.313,1.831,0.376c1.166,1.567,2.307,3.147,3.46,4.727  c0.326-0.1,0.664-0.15,1.028-0.15s0.714,0.05,1.054,0.15c0.964-1.341,1.918-2.657,2.871-3.975c0.2-0.288,0.4-0.576,0.627-0.852  c0.513-0.602,1.152-0.74,1.78-0.25c0.602,0.464,0.64,1.09,0.212,1.704c-0.84,1.191-1.691,2.357-2.531,3.524  c-0.313,0.438-0.628,0.864-0.953,1.316c0.377,0.564,0.613,1.229,0.626,1.956c1.568,0.514,3.072,1.016,4.577,1.505  c0.4,0.124,0.803,0.238,1.19,0.4c0.652,0.275,0.928,0.777,0.74,1.467c-0.188,0.715-0.728,0.954-1.404,0.853  c-0.352-0.05-0.689-0.162-1.027-0.276c-1.581-0.514-3.173-1.027-4.814-1.565C52.473,54.759,51.884,55.196,51.218,55.435z   M64.922,73.213c-1.366,1.016-2.444-0.363-3.284-1.279c-2.858-3.096-4.99-6.67-6.445-10.619c-0.163-0.451-0.176-0.939-0.264-1.403  c0.126-0.088,0.252-0.164,0.376-0.25c0.415,0.236,0.879,0.426,1.255,0.726c3.271,2.634,6.055,5.73,8.099,9.416  C65.235,70.855,66.226,72.247,64.922,73.213z M72.407,47.161c-3.849,1.83-7.949,2.67-12.187,2.946  c-0.502,0.025-1.016-0.163-1.931-0.326c0.765-0.677,1.178-1.166,1.692-1.492c3.436-2.231,7.171-3.787,11.184-4.614  c1.141-0.226,2.771-0.676,3.311,0.828C75.04,46.057,73.485,46.633,72.407,47.161z"/></g><g id="SvgjsG3403" featureKey="7UBp9i-0" transform="matrix(2.244379456220445,0,0,2.244379456220445,93.30674641837128,8.586081763201166)" fill="#fff"><path d="M15.1 12.440000000000001 q0 -1.6 -0.82 -2.9 q-0.78 -1.26 -2.13 -1.98 t-2.93 -0.72 q-1.64 0 -2.99 0.74 t-2.11 2.02 q-0.78 1.34 -0.78 2.98 q0 1.56 0.84 2.88 q0.8 1.24 2.15 1.97 t2.92 0.73 t2.92 -0.76 t2.13 -2.04 q0.8 -1.34 0.8 -2.92 z M17.26 12.559999999999999 q0 2.16 -1.12 3.98 q-1.08 1.74 -2.93 2.77 t-3.99 1.03 q-2.22 0 -4.08 -1.08 q-1.82 -1.04 -2.86 -2.86 q-1.08 -1.86 -1.08 -4.08 q0 -2.14 1.14 -3.94 q1.08 -1.72 2.93 -2.73 t3.97 -1.01 q2.18 0 4.04 1.06 q1.82 1.04 2.88 2.82 q1.1 1.86 1.1 4.04 z M29.788 7.279999999999999 l-5.26 0 l0 12.72 l-2.12 0 l0 -12.72 l-5.32 0 l0 -2.2 l12.7 0 l0 2.2 z M35.276 6.66 l-0.82 -1.84 l2.4 0 l7.18 15.18 l-2.44 0 l-0.98 -2.18 l-4.54 0 q-1.28 0 -2.3 0.24 q-0.9 0.22 -1.5 0.58 q-0.54 0.32 -0.72 0.66 l-0.38 0.7 l-2.36 0 z M36.876000000000005 15.620000000000001 l2.76 0 l-3.26 -6.3 l-3.3 7.14 q0.44 -0.38 1.34 -0.6 q1.02 -0.24 2.46 -0.24 z M51.064 14.02 l-4.02 5.98 l-2.18 0 l0 -14.92 l2.18 0 l0 11.14 l7.58 -11.14 l2.62 0 l-4.9 7.02 l2.68 4.02 q0.64 0.96 1.26 1.36 q0.5 0.32 1.06 0.32 l0.62 -0.02 l0 2.22 l-0.4 0 q-1 0.02 -1.46 -0.08 q-0.74 -0.12 -1.36 -0.6 q-0.7 -0.56 -1.42 -1.68 z M65.892 20.34 q-2.1 0 -3.61 -0.73 t-2.3 -2.11 t-0.79 -3.3 l0 -9.12 l2.16 0 l0 9.12 q0 1.92 1.18 2.94 t3.36 1.02 t3.36 -1.02 t1.18 -2.94 l0 -9.12 l2.16 0 l0 9.12 q0 1.92 -0.79 3.3 t-2.3 2.11 t-3.61 0.73 z M91.24000000000001 5.08 l2.3 0 l-4.76 14.92 l-2.36 0 l-2.88 -8.82 l-2.8 8.82 l-2.36 0 l-5.06 -14.92 l2.24 0 l3.96 11.16 l2.8 -8.8 l-0.76 -2.36 l2.24 0 l3.76 11.16 z M96.608 20 l-2.14 0 l0 -14.92 l2.14 0 l0 14.92 z M110.636 15.46 q0 1.46 -0.88 2.6 q-0.86 1.08 -2.37 1.68 t-3.41 0.6 q-1.74 0 -3.38 -0.81 t-2.76 -2.25 l1.56 -1.46 q1.94 2.34 4.58 2.34 q1.16 0 2.12 -0.28 q1.06 -0.32 1.64 -0.9 q0.66 -0.64 0.66 -1.52 q0 -1.06 -0.66 -1.6 q-0.56 -0.46 -1.66 -0.6 q-0.64 -0.08 -2.1 -0.08 q-2.68 0 -4.09 -0.98 t-1.41 -2.88 q0 -1.2 0.71 -2.28 t1.95 -1.72 q1.28 -0.68 2.84 -0.68 q1.76 0 3.18 0.54 q1.52 0.58 2.82 1.82 l-1.36 1.6 q-1.22 -0.98 -2.22 -1.37 t-2.42 -0.39 q-0.82 0 -1.53 0.34 t-1.13 0.91 t-0.42 1.21 q0 1.72 3.18 1.72 q2.54 0 4.02 0.52 q1.4 0.5 2 1.52 q0.54 0.9 0.54 2.4 z M114.044 14.02 l0 3.8 l9.2 0 l0 2.18 l-11.38 0 l0 -14.92 l10.5 0 l0 2.2 l-8.32 0 l0 4.52 q0.62 -0.36 1.38 -0.48 q0.56 -0.1 1.44 -0.1 l3.26 0 l0 2.22 l-3.26 0 q-0.82 0 -1.44 0.1 q-0.76 0.14 -1.38 0.48 z"/></g>
			</g>
		</svg>
	